<?xml version="1.0" encoding="utf-8" standalone="no"?>
<!DOCTYPE svg PUBLIC "-//W3C//DTD SVG 1.1//EN"
  "http://www.w3.org/Graphics/SVG/1.1/DTD/svg11.dtd">
<svg xmlns:xlink="http://www.w3.org/1999/xlink" width="841.68pt" height="307.44pt" viewBox="0 0 841.68 307.44" xmlns="http://www.w3.org/2000/svg" version="1.1">
 <metadata>
  <rdf:RDF xmlns:dc="http://purl.org/dc/elements/1.1/" xmlns:cc="http://creativecommons.org/ns#" xmlns:rdf="http://www.w3.org/1999/02/22-rdf-syntax-ns#">
   <cc:Work>
    <dc:type rdf:resource="http://purl.org/dc/dcmitype/StillImage"/>
    <dc:date>2022-02-17T19:35:15.047368</dc:date>
    <dc:format>image/svg+xml</dc:format>
    <dc:creator>
     <cc:Agent>
      <dc:title>Matplotlib v3.5.1, https://matplotlib.org/</dc:title>
     </cc:Agent>
    </dc:creator>
   </cc:Work>
  </rdf:RDF>
 </metadata>
 <defs>
  <style type="text/css">*{stroke-linejoin: round; stroke-linecap: butt}</style>
 </defs>
 <g id="figure_1">
  <g id="patch_1">
   <path d="M 0 307.44 
L 841.68 307.44 
L 841.68 0 
L 0 0 
z
" style="fill: #ffffff"/>
  </g>
  <g id="axes_1">
   <g id="patch_2">
    <path d="M 84.168 267.4728 
L 824.8464 267.4728 
L 824.8464 30.744 
L 84.168 30.744 
z
" style="fill: #ffffff"/>
   </g>
   <g id="matplotlib.axis_1">
    <g id="xtick_1">
     <g id="line2d_1">
      <defs>
       <path id="me61542f247" d="M 0 0 
L 0 3.5 
" style="stroke: #000000; stroke-width: 0.8"/>
      </defs>
      <g>
       <use xlink:href="#me61542f247" x="84.168" y="267.4728" style="stroke: #000000; stroke-width: 0.8"/>
      </g>
     </g>
     <g id="text_1">
      <!-- −250 -->
      <g transform="translate(71.807766 281.311394)scale(0.09 -0.09)">
       <defs>
        <path id="DejaVuSerif-2212" d="M 678 2259 
L 4684 2259 
L 4684 1753 
L 678 1753 
L 678 2259 
z
" transform="scale(0.015625)"/>
        <path id="DejaVuSerif-32" d="M 819 3553 
L 469 3553 
L 469 4384 
Q 803 4563 1142 4656 
Q 1481 4750 1806 4750 
Q 2534 4750 2956 4397 
Q 3378 4044 3378 3438 
Q 3378 2753 2422 1800 
Q 2347 1728 2309 1691 
L 1131 513 
L 3078 513 
L 3078 1088 
L 3444 1088 
L 3444 0 
L 434 0 
L 434 341 
L 1850 1753 
Q 2319 2222 2519 2614 
Q 2719 3006 2719 3438 
Q 2719 3909 2473 4175 
Q 2228 4441 1797 4441 
Q 1350 4441 1106 4219 
Q 863 3997 819 3553 
z
" transform="scale(0.015625)"/>
        <path id="DejaVuSerif-35" d="M 3219 4666 
L 3219 4153 
L 1081 4153 
L 1081 2816 
Q 1244 2928 1461 2984 
Q 1678 3041 1947 3041 
Q 2703 3041 3140 2622 
Q 3578 2203 3578 1478 
Q 3578 738 3136 323 
Q 2694 -91 1894 -91 
Q 1572 -91 1234 -12 
Q 897 66 544 225 
L 544 1131 
L 897 1131 
Q 925 688 1179 453 
Q 1434 219 1894 219 
Q 2388 219 2653 544 
Q 2919 869 2919 1478 
Q 2919 2084 2655 2407 
Q 2391 2731 1894 2731 
Q 1613 2731 1398 2631 
Q 1184 2531 1019 2322 
L 750 2322 
L 750 4666 
L 3219 4666 
z
" transform="scale(0.015625)"/>
        <path id="DejaVuSerif-30" d="M 2034 219 
Q 2513 219 2750 744 
Q 2988 1269 2988 2328 
Q 2988 3391 2750 3916 
Q 2513 4441 2034 4441 
Q 1556 4441 1318 3916 
Q 1081 3391 1081 2328 
Q 1081 1269 1318 744 
Q 1556 219 2034 219 
z
M 2034 -91 
Q 1275 -91 848 546 
Q 422 1184 422 2328 
Q 422 3475 848 4112 
Q 1275 4750 2034 4750 
Q 2797 4750 3222 4112 
Q 3647 3475 3647 2328 
Q 3647 1184 3222 546 
Q 2797 -91 2034 -91 
z
" transform="scale(0.015625)"/>
       </defs>
       <use xlink:href="#DejaVuSerif-2212"/>
       <use xlink:href="#DejaVuSerif-32" x="83.789062"/>
       <use xlink:href="#DejaVuSerif-35" x="147.412109"/>
       <use xlink:href="#DejaVuSerif-30" x="211.035156"/>
      </g>
     </g>
    </g>
    <g id="xtick_2">
     <g id="line2d_2">
      <g>
       <use xlink:href="#me61542f247" x="125.779146" y="267.4728" style="stroke: #000000; stroke-width: 0.8"/>
      </g>
     </g>
     <g id="text_2">
      <!-- 0 -->
      <g transform="translate(122.916021 281.311394)scale(0.09 -0.09)">
       <use xlink:href="#DejaVuSerif-30"/>
      </g>
     </g>
    </g>
    <g id="xtick_3">
     <g id="line2d_3">
      <g>
       <use xlink:href="#me61542f247" x="167.390292" y="267.4728" style="stroke: #000000; stroke-width: 0.8"/>
      </g>
     </g>
     <g id="text_3">
      <!-- 250 -->
      <g transform="translate(158.800917 281.311394)scale(0.09 -0.09)">
       <use xlink:href="#DejaVuSerif-32"/>
       <use xlink:href="#DejaVuSerif-35" x="63.623047"/>
       <use xlink:href="#DejaVuSerif-30" x="127.246094"/>
      </g>
     </g>
    </g>
    <g id="xtick_4">
     <g id="line2d_4">
      <g>
       <use xlink:href="#me61542f247" x="209.001438" y="267.4728" style="stroke: #000000; stroke-width: 0.8"/>
      </g>
     </g>
     <g id="text_4">
      <!-- 500 -->
      <g transform="translate(200.412063 281.311394)scale(0.09 -0.09)">
       <use xlink:href="#DejaVuSerif-35"/>
       <use xlink:href="#DejaVuSerif-30" x="63.623047"/>
       <use xlink:href="#DejaVuSerif-30" x="127.246094"/>
      </g>
     </g>
    </g>
    <g id="xtick_5">
     <g id="line2d_5">
      <g>
       <use xlink:href="#me61542f247" x="250.612584" y="267.4728" style="stroke: #000000; stroke-width: 0.8"/>
      </g>
     </g>
     <g id="text_5">
      <!-- 750 -->
      <g transform="translate(242.023209 281.311394)scale(0.09 -0.09)">
       <defs>
        <path id="DejaVuSerif-37" d="M 3609 4347 
L 1784 0 
L 1319 0 
L 3059 4153 
L 903 4153 
L 903 3578 
L 538 3578 
L 538 4666 
L 3609 4666 
L 3609 4347 
z
" transform="scale(0.015625)"/>
       </defs>
       <use xlink:href="#DejaVuSerif-37"/>
       <use xlink:href="#DejaVuSerif-35" x="63.623047"/>
       <use xlink:href="#DejaVuSerif-30" x="127.246094"/>
      </g>
     </g>
    </g>
    <g id="xtick_6">
     <g id="line2d_6">
      <g>
       <use xlink:href="#me61542f247" x="292.22373" y="267.4728" style="stroke: #000000; stroke-width: 0.8"/>
      </g>
     </g>
     <g id="text_6">
      <!-- 1000 -->
      <g transform="translate(280.77123 281.311394)scale(0.09 -0.09)">
       <defs>
        <path id="DejaVuSerif-31" d="M 909 0 
L 909 331 
L 1722 331 
L 1722 4213 
L 781 3603 
L 781 4013 
L 1919 4750 
L 2350 4750 
L 2350 331 
L 3163 331 
L 3163 0 
L 909 0 
z
" transform="scale(0.015625)"/>
       </defs>
       <use xlink:href="#DejaVuSerif-31"/>
       <use xlink:href="#DejaVuSerif-30" x="63.623047"/>
       <use xlink:href="#DejaVuSerif-30" x="127.246094"/>
       <use xlink:href="#DejaVuSerif-30" x="190.869141"/>
      </g>
     </g>
    </g>
    <g id="xtick_7">
     <g id="line2d_7">
      <g>
       <use xlink:href="#me61542f247" x="333.834876" y="267.4728" style="stroke: #000000; stroke-width: 0.8"/>
      </g>
     </g>
     <g id="text_7">
      <!-- 1250 -->
      <g transform="translate(322.382376 281.311394)scale(0.09 -0.09)">
       <use xlink:href="#DejaVuSerif-31"/>
       <use xlink:href="#DejaVuSerif-32" x="63.623047"/>
       <use xlink:href="#DejaVuSerif-35" x="127.246094"/>
       <use xlink:href="#DejaVuSerif-30" x="190.869141"/>
      </g>
     </g>
    </g>
    <g id="xtick_8">
     <g id="line2d_8">
      <g>
       <use xlink:href="#me61542f247" x="375.446022" y="267.4728" style="stroke: #000000; stroke-width: 0.8"/>
      </g>
     </g>
     <g id="text_8">
      <!-- 1500 -->
      <g transform="translate(363.993522 281.311394)scale(0.09 -0.09)">
       <use xlink:href="#DejaVuSerif-31"/>
       <use xlink:href="#DejaVuSerif-35" x="63.623047"/>
       <use xlink:href="#DejaVuSerif-30" x="127.246094"/>
       <use xlink:href="#DejaVuSerif-30" x="190.869141"/>
      </g>
     </g>
    </g>
    <g id="xtick_9">
     <g id="line2d_9">
      <g>
       <use xlink:href="#me61542f247" x="417.057169" y="267.4728" style="stroke: #000000; stroke-width: 0.8"/>
      </g>
     </g>
     <g id="text_9">
      <!-- 1750 -->
      <g transform="translate(405.604669 281.311394)scale(0.09 -0.09)">
       <use xlink:href="#DejaVuSerif-31"/>
       <use xlink:href="#DejaVuSerif-37" x="63.623047"/>
       <use xlink:href="#DejaVuSerif-35" x="127.246094"/>
       <use xlink:href="#DejaVuSerif-30" x="190.869141"/>
      </g>
     </g>
    </g>
    <g id="xtick_10">
     <g id="line2d_10">
      <g>
       <use xlink:href="#me61542f247" x="458.668315" y="267.4728" style="stroke: #000000; stroke-width: 0.8"/>
      </g>
     </g>
     <g id="text_10">
      <!-- 2000 -->
      <g transform="translate(447.215815 281.311394)scale(0.09 -0.09)">
       <use xlink:href="#DejaVuSerif-32"/>
       <use xlink:href="#DejaVuSerif-30" x="63.623047"/>
       <use xlink:href="#DejaVuSerif-30" x="127.246094"/>
       <use xlink:href="#DejaVuSerif-30" x="190.869141"/>
      </g>
     </g>
    </g>
    <g id="xtick_11">
     <g id="line2d_11">
      <g>
       <use xlink:href="#me61542f247" x="500.279461" y="267.4728" style="stroke: #000000; stroke-width: 0.8"/>
      </g>
     </g>
     <g id="text_11">
      <!-- 2250 -->
      <g transform="translate(488.826961 281.311394)scale(0.09 -0.09)">
       <use xlink:href="#DejaVuSerif-32"/>
       <use xlink:href="#DejaVuSerif-32" x="63.623047"/>
       <use xlink:href="#DejaVuSerif-35" x="127.246094"/>
       <use xlink:href="#DejaVuSerif-30" x="190.869141"/>
      </g>
     </g>
    </g>
    <g id="xtick_12">
     <g id="line2d_12">
      <g>
       <use xlink:href="#me61542f247" x="541.890607" y="267.4728" style="stroke: #000000; stroke-width: 0.8"/>
      </g>
     </g>
     <g id="text_12">
      <!-- 2500 -->
      <g transform="translate(530.438107 281.311394)scale(0.09 -0.09)">
       <use xlink:href="#DejaVuSerif-32"/>
       <use xlink:href="#DejaVuSerif-35" x="63.623047"/>
       <use xlink:href="#DejaVuSerif-30" x="127.246094"/>
       <use xlink:href="#DejaVuSerif-30" x="190.869141"/>
      </g>
     </g>
    </g>
    <g id="xtick_13">
     <g id="line2d_13">
      <g>
       <use xlink:href="#me61542f247" x="583.501753" y="267.4728" style="stroke: #000000; stroke-width: 0.8"/>
      </g>
     </g>
     <g id="text_13">
      <!-- 2750 -->
      <g transform="translate(572.049253 281.311394)scale(0.09 -0.09)">
       <use xlink:href="#DejaVuSerif-32"/>
       <use xlink:href="#DejaVuSerif-37" x="63.623047"/>
       <use xlink:href="#DejaVuSerif-35" x="127.246094"/>
       <use xlink:href="#DejaVuSerif-30" x="190.869141"/>
      </g>
     </g>
    </g>
    <g id="xtick_14">
     <g id="line2d_14">
      <g>
       <use xlink:href="#me61542f247" x="625.112899" y="267.4728" style="stroke: #000000; stroke-width: 0.8"/>
      </g>
     </g>
     <g id="text_14">
      <!-- 3000 -->
      <g transform="translate(613.660399 281.311394)scale(0.09 -0.09)">
       <defs>
        <path id="DejaVuSerif-33" d="M 622 4469 
Q 988 4606 1323 4678 
Q 1659 4750 1953 4750 
Q 2638 4750 3022 4454 
Q 3406 4159 3406 3634 
Q 3406 3213 3140 2930 
Q 2875 2647 2388 2547 
Q 2963 2466 3280 2130 
Q 3597 1794 3597 1259 
Q 3597 606 3158 257 
Q 2719 -91 1894 -91 
Q 1528 -91 1179 -12 
Q 831 66 488 225 
L 488 1131 
L 838 1131 
Q 869 681 1141 450 
Q 1413 219 1906 219 
Q 2384 219 2661 495 
Q 2938 772 2938 1253 
Q 2938 1803 2653 2086 
Q 2369 2369 1819 2369 
L 1522 2369 
L 1522 2688 
L 1678 2688 
Q 2225 2688 2498 2914 
Q 2772 3141 2772 3597 
Q 2772 4006 2547 4223 
Q 2322 4441 1900 4441 
Q 1478 4441 1245 4241 
Q 1013 4041 972 3647 
L 622 3647 
L 622 4469 
z
" transform="scale(0.015625)"/>
       </defs>
       <use xlink:href="#DejaVuSerif-33"/>
       <use xlink:href="#DejaVuSerif-30" x="63.623047"/>
       <use xlink:href="#DejaVuSerif-30" x="127.246094"/>
       <use xlink:href="#DejaVuSerif-30" x="190.869141"/>
      </g>
     </g>
    </g>
    <g id="xtick_15">
     <g id="line2d_15">
      <g>
       <use xlink:href="#me61542f247" x="666.724045" y="267.4728" style="stroke: #000000; stroke-width: 0.8"/>
      </g>
     </g>
     <g id="text_15">
      <!-- 3250 -->
      <g transform="translate(655.271545 281.311394)scale(0.09 -0.09)">
       <use xlink:href="#DejaVuSerif-33"/>
       <use xlink:href="#DejaVuSerif-32" x="63.623047"/>
       <use xlink:href="#DejaVuSerif-35" x="127.246094"/>
       <use xlink:href="#DejaVuSerif-30" x="190.869141"/>
      </g>
     </g>
    </g>
    <g id="xtick_16">
     <g id="line2d_16">
      <g>
       <use xlink:href="#me61542f247" x="708.335191" y="267.4728" style="stroke: #000000; stroke-width: 0.8"/>
      </g>
     </g>
     <g id="text_16">
      <!-- 3500 -->
      <g transform="translate(696.882691 281.311394)scale(0.09 -0.09)">
       <use xlink:href="#DejaVuSerif-33"/>
       <use xlink:href="#DejaVuSerif-35" x="63.623047"/>
       <use xlink:href="#DejaVuSerif-30" x="127.246094"/>
       <use xlink:href="#DejaVuSerif-30" x="190.869141"/>
      </g>
     </g>
    </g>
    <g id="xtick_17">
     <g id="line2d_17">
      <g>
       <use xlink:href="#me61542f247" x="749.946337" y="267.4728" style="stroke: #000000; stroke-width: 0.8"/>
      </g>
     </g>
     <g id="text_17">
      <!-- 3750 -->
      <g transform="translate(738.493837 281.311394)scale(0.09 -0.09)">
       <use xlink:href="#DejaVuSerif-33"/>
       <use xlink:href="#DejaVuSerif-37" x="63.623047"/>
       <use xlink:href="#DejaVuSerif-35" x="127.246094"/>
       <use xlink:href="#DejaVuSerif-30" x="190.869141"/>
      </g>
     </g>
    </g>
    <g id="xtick_18">
     <g id="line2d_18">
      <g>
       <use xlink:href="#me61542f247" x="791.557483" y="267.4728" style="stroke: #000000; stroke-width: 0.8"/>
      </g>
     </g>
     <g id="text_18">
      <!-- 4000 -->
      <g transform="translate(780.104983 281.311394)scale(0.09 -0.09)">
       <defs>
        <path id="DejaVuSerif-34" d="M 2234 1581 
L 2234 4063 
L 641 1581 
L 2234 1581 
z
M 3609 0 
L 1484 0 
L 1484 331 
L 2234 331 
L 2234 1247 
L 197 1247 
L 197 1588 
L 2241 4750 
L 2859 4750 
L 2859 1581 
L 3750 1581 
L 3750 1247 
L 2859 1247 
L 2859 331 
L 3609 331 
L 3609 0 
z
" transform="scale(0.015625)"/>
       </defs>
       <use xlink:href="#DejaVuSerif-34"/>
       <use xlink:href="#DejaVuSerif-30" x="63.623047"/>
       <use xlink:href="#DejaVuSerif-30" x="127.246094"/>
       <use xlink:href="#DejaVuSerif-30" x="190.869141"/>
      </g>
     </g>
    </g>
    <g id="text_19">
     <!-- Wavenumber -->
     <g transform="translate(408.028294 297.820925)scale(0.14 -0.14)">
      <defs>
       <path id="DejaVuSerif-57" d="M 4878 0 
L 4366 0 
L 3297 3794 
L 2228 0 
L 1716 0 
L 494 4331 
L 31 4331 
L 31 4666 
L 1734 4666 
L 1734 4331 
L 1153 4331 
L 2125 884 
L 3188 4666 
L 3694 4666 
L 4775 844 
L 5753 4331 
L 5216 4331 
L 5216 4666 
L 6559 4666 
L 6559 4331 
L 6100 4331 
L 4878 0 
z
" transform="scale(0.015625)"/>
       <path id="DejaVuSerif-61" d="M 2547 1044 
L 2547 1747 
L 1806 1747 
Q 1378 1747 1168 1562 
Q 959 1378 959 997 
Q 959 650 1171 447 
Q 1384 244 1747 244 
Q 2106 244 2326 466 
Q 2547 688 2547 1044 
z
M 3122 2075 
L 3122 331 
L 3634 331 
L 3634 0 
L 2547 0 
L 2547 359 
Q 2356 128 2106 18 
Q 1856 -91 1522 -91 
Q 969 -91 644 203 
Q 319 497 319 997 
Q 319 1513 691 1797 
Q 1063 2081 1741 2081 
L 2547 2081 
L 2547 2309 
Q 2547 2688 2317 2895 
Q 2088 3103 1672 3103 
Q 1328 3103 1125 2947 
Q 922 2791 872 2484 
L 575 2484 
L 575 3156 
Q 875 3284 1158 3348 
Q 1441 3413 1709 3413 
Q 2400 3413 2761 3070 
Q 3122 2728 3122 2075 
z
" transform="scale(0.015625)"/>
       <path id="DejaVuSerif-76" d="M 1581 0 
L 359 2988 
L -19 2988 
L -19 3322 
L 1509 3322 
L 1509 2988 
L 978 2988 
L 1913 703 
L 2847 2988 
L 2350 2988 
L 2350 3322 
L 3597 3322 
L 3597 2988 
L 3225 2988 
L 2003 0 
L 1581 0 
z
" transform="scale(0.015625)"/>
       <path id="DejaVuSerif-65" d="M 3469 1600 
L 991 1600 
L 991 1575 
Q 991 903 1244 561 
Q 1497 219 1991 219 
Q 2369 219 2611 417 
Q 2853 616 2950 1006 
L 3413 1006 
Q 3275 459 2904 184 
Q 2534 -91 1931 -91 
Q 1203 -91 761 389 
Q 319 869 319 1663 
Q 319 2450 753 2931 
Q 1188 3413 1894 3413 
Q 2647 3413 3050 2948 
Q 3453 2484 3469 1600 
z
M 2791 1931 
Q 2772 2513 2545 2808 
Q 2319 3103 1894 3103 
Q 1497 3103 1269 2806 
Q 1041 2509 991 1931 
L 2791 1931 
z
" transform="scale(0.015625)"/>
       <path id="DejaVuSerif-6e" d="M 263 0 
L 263 331 
L 781 331 
L 781 2988 
L 231 2988 
L 231 3322 
L 1356 3322 
L 1356 2731 
Q 1516 3069 1770 3241 
Q 2025 3413 2363 3413 
Q 2913 3413 3172 3097 
Q 3431 2781 3431 2113 
L 3431 331 
L 3944 331 
L 3944 0 
L 2356 0 
L 2356 331 
L 2853 331 
L 2853 1931 
Q 2853 2541 2703 2767 
Q 2553 2994 2175 2994 
Q 1775 2994 1565 2701 
Q 1356 2409 1356 1850 
L 1356 331 
L 1856 331 
L 1856 0 
L 263 0 
z
" transform="scale(0.015625)"/>
       <path id="DejaVuSerif-75" d="M 2266 3322 
L 3341 3322 
L 3341 331 
L 3884 331 
L 3884 0 
L 2766 0 
L 2766 588 
Q 2606 256 2353 82 
Q 2100 -91 1766 -91 
Q 1213 -91 952 223 
Q 691 538 691 1209 
L 691 2988 
L 172 2988 
L 172 3322 
L 1269 3322 
L 1269 1388 
Q 1269 781 1417 556 
Q 1566 331 1947 331 
Q 2347 331 2556 625 
Q 2766 919 2766 1478 
L 2766 2988 
L 2266 2988 
L 2266 3322 
z
" transform="scale(0.015625)"/>
       <path id="DejaVuSerif-6d" d="M 3316 2675 
Q 3481 3041 3739 3227 
Q 3997 3413 4341 3413 
Q 4863 3413 5119 3089 
Q 5375 2766 5375 2113 
L 5375 331 
L 5894 331 
L 5894 0 
L 4300 0 
L 4300 331 
L 4800 331 
L 4800 2047 
Q 4800 2556 4650 2772 
Q 4500 2988 4153 2988 
Q 3769 2988 3567 2697 
Q 3366 2406 3366 1850 
L 3366 331 
L 3866 331 
L 3866 0 
L 2291 0 
L 2291 331 
L 2791 331 
L 2791 2069 
Q 2791 2566 2641 2777 
Q 2491 2988 2144 2988 
Q 1759 2988 1557 2697 
Q 1356 2406 1356 1850 
L 1356 331 
L 1856 331 
L 1856 0 
L 263 0 
L 263 331 
L 781 331 
L 781 2994 
L 231 2994 
L 231 3322 
L 1356 3322 
L 1356 2731 
Q 1516 3063 1762 3238 
Q 2009 3413 2322 3413 
Q 2709 3413 2968 3220 
Q 3228 3028 3316 2675 
z
" transform="scale(0.015625)"/>
       <path id="DejaVuSerif-62" d="M 738 331 
L 738 4531 
L 184 4531 
L 184 4863 
L 1313 4863 
L 1313 2803 
Q 1481 3116 1742 3264 
Q 2003 3413 2388 3413 
Q 3000 3413 3387 2928 
Q 3775 2444 3775 1663 
Q 3775 881 3387 395 
Q 3000 -91 2388 -91 
Q 2003 -91 1742 57 
Q 1481 206 1313 519 
L 1313 0 
L 184 0 
L 184 331 
L 738 331 
z
M 1313 1497 
Q 1313 897 1542 583 
Q 1772 269 2209 269 
Q 2650 269 2876 622 
Q 3103 975 3103 1663 
Q 3103 2353 2876 2703 
Q 2650 3053 2209 3053 
Q 1772 3053 1542 2737 
Q 1313 2422 1313 1825 
L 1313 1497 
z
" transform="scale(0.015625)"/>
       <path id="DejaVuSerif-72" d="M 3059 3328 
L 3059 2497 
L 2728 2497 
Q 2713 2744 2591 2866 
Q 2469 2988 2234 2988 
Q 1809 2988 1582 2694 
Q 1356 2400 1356 1850 
L 1356 331 
L 2022 331 
L 2022 0 
L 263 0 
L 263 331 
L 781 331 
L 781 2994 
L 231 2994 
L 231 3322 
L 1356 3322 
L 1356 2731 
Q 1525 3078 1790 3245 
Q 2056 3413 2438 3413 
Q 2578 3413 2733 3391 
Q 2888 3369 3059 3328 
z
" transform="scale(0.015625)"/>
      </defs>
      <use xlink:href="#DejaVuSerif-57"/>
      <use xlink:href="#DejaVuSerif-61" x="94.033203"/>
      <use xlink:href="#DejaVuSerif-76" x="153.652344"/>
      <use xlink:href="#DejaVuSerif-65" x="210.146484"/>
      <use xlink:href="#DejaVuSerif-6e" x="269.326172"/>
      <use xlink:href="#DejaVuSerif-75" x="333.730469"/>
      <use xlink:href="#DejaVuSerif-6d" x="398.134766"/>
      <use xlink:href="#DejaVuSerif-62" x="492.958984"/>
      <use xlink:href="#DejaVuSerif-65" x="556.972656"/>
      <use xlink:href="#DejaVuSerif-72" x="616.152344"/>
     </g>
    </g>
   </g>
   <g id="matplotlib.axis_2">
    <g id="ytick_1">
     <g id="line2d_19">
      <defs>
       <path id="m957c3bc2e3" d="M 0 0 
L -3.5 0 
" style="stroke: #000000; stroke-width: 0.8"/>
      </defs>
      <g>
       <use xlink:href="#m957c3bc2e3" x="84.168" y="263.047963" style="stroke: #000000; stroke-width: 0.8"/>
      </g>
     </g>
     <g id="text_20">
      <!-- 0 -->
      <g transform="translate(71.44175 266.467259)scale(0.09 -0.09)">
       <use xlink:href="#DejaVuSerif-30"/>
      </g>
     </g>
    </g>
    <g id="ytick_2">
     <g id="line2d_20">
      <g>
       <use xlink:href="#m957c3bc2e3" x="84.168" y="240.923776" style="stroke: #000000; stroke-width: 0.8"/>
      </g>
     </g>
     <g id="text_21">
      <!-- 10 -->
      <g transform="translate(65.7155 244.343073)scale(0.09 -0.09)">
       <use xlink:href="#DejaVuSerif-31"/>
       <use xlink:href="#DejaVuSerif-30" x="63.623047"/>
      </g>
     </g>
    </g>
    <g id="ytick_3">
     <g id="line2d_21">
      <g>
       <use xlink:href="#m957c3bc2e3" x="84.168" y="218.799589" style="stroke: #000000; stroke-width: 0.8"/>
      </g>
     </g>
     <g id="text_22">
      <!-- 20 -->
      <g transform="translate(65.7155 222.218886)scale(0.09 -0.09)">
       <use xlink:href="#DejaVuSerif-32"/>
       <use xlink:href="#DejaVuSerif-30" x="63.623047"/>
      </g>
     </g>
    </g>
    <g id="ytick_4">
     <g id="line2d_22">
      <g>
       <use xlink:href="#m957c3bc2e3" x="84.168" y="196.675402" style="stroke: #000000; stroke-width: 0.8"/>
      </g>
     </g>
     <g id="text_23">
      <!-- 30 -->
      <g transform="translate(65.7155 200.094699)scale(0.09 -0.09)">
       <use xlink:href="#DejaVuSerif-33"/>
       <use xlink:href="#DejaVuSerif-30" x="63.623047"/>
      </g>
     </g>
    </g>
    <g id="ytick_5">
     <g id="line2d_23">
      <g>
       <use xlink:href="#m957c3bc2e3" x="84.168" y="174.551215" style="stroke: #000000; stroke-width: 0.8"/>
      </g>
     </g>
     <g id="text_24">
      <!-- 40 -->
      <g transform="translate(65.7155 177.970512)scale(0.09 -0.09)">
       <use xlink:href="#DejaVuSerif-34"/>
       <use xlink:href="#DejaVuSerif-30" x="63.623047"/>
      </g>
     </g>
    </g>
    <g id="ytick_6">
     <g id="line2d_24">
      <g>
       <use xlink:href="#m957c3bc2e3" x="84.168" y="152.427028" style="stroke: #000000; stroke-width: 0.8"/>
      </g>
     </g>
     <g id="text_25">
      <!-- 50 -->
      <g transform="translate(65.7155 155.846325)scale(0.09 -0.09)">
       <use xlink:href="#DejaVuSerif-35"/>
       <use xlink:href="#DejaVuSerif-30" x="63.623047"/>
      </g>
     </g>
    </g>
    <g id="ytick_7">
     <g id="line2d_25">
      <g>
       <use xlink:href="#m957c3bc2e3" x="84.168" y="130.302841" style="stroke: #000000; stroke-width: 0.8"/>
      </g>
     </g>
     <g id="text_26">
      <!-- 60 -->
      <g transform="translate(65.7155 133.722138)scale(0.09 -0.09)">
       <defs>
        <path id="DejaVuSerif-36" d="M 2094 219 
Q 2534 219 2771 542 
Q 3009 866 3009 1472 
Q 3009 2078 2771 2401 
Q 2534 2725 2094 2725 
Q 1647 2725 1412 2412 
Q 1178 2100 1178 1509 
Q 1178 888 1415 553 
Q 1653 219 2094 219 
z
M 1075 2569 
Q 1288 2803 1556 2918 
Q 1825 3034 2163 3034 
Q 2859 3034 3264 2615 
Q 3669 2197 3669 1472 
Q 3669 763 3233 336 
Q 2797 -91 2069 -91 
Q 1278 -91 853 498 
Q 428 1088 428 2181 
Q 428 3406 931 4078 
Q 1434 4750 2350 4750 
Q 2597 4750 2869 4703 
Q 3141 4656 3425 4563 
L 3425 3794 
L 3072 3794 
Q 3034 4109 2831 4275 
Q 2628 4441 2284 4441 
Q 1678 4441 1381 3981 
Q 1084 3522 1075 2569 
z
" transform="scale(0.015625)"/>
       </defs>
       <use xlink:href="#DejaVuSerif-36"/>
       <use xlink:href="#DejaVuSerif-30" x="63.623047"/>
      </g>
     </g>
    </g>
    <g id="ytick_8">
     <g id="line2d_26">
      <g>
       <use xlink:href="#m957c3bc2e3" x="84.168" y="108.178654" style="stroke: #000000; stroke-width: 0.8"/>
      </g>
     </g>
     <g id="text_27">
      <!-- 70 -->
      <g transform="translate(65.7155 111.597951)scale(0.09 -0.09)">
       <use xlink:href="#DejaVuSerif-37"/>
       <use xlink:href="#DejaVuSerif-30" x="63.623047"/>
      </g>
     </g>
    </g>
    <g id="ytick_9">
     <g id="line2d_27">
      <g>
       <use xlink:href="#m957c3bc2e3" x="84.168" y="86.054467" style="stroke: #000000; stroke-width: 0.8"/>
      </g>
     </g>
     <g id="text_28">
      <!-- 80 -->
      <g transform="translate(65.7155 89.473764)scale(0.09 -0.09)">
       <defs>
        <path id="DejaVuSerif-38" d="M 2981 1275 
Q 2981 1775 2732 2051 
Q 2484 2328 2034 2328 
Q 1584 2328 1336 2051 
Q 1088 1775 1088 1275 
Q 1088 772 1336 495 
Q 1584 219 2034 219 
Q 2484 219 2732 495 
Q 2981 772 2981 1275 
z
M 2853 3541 
Q 2853 3966 2637 4203 
Q 2422 4441 2034 4441 
Q 1650 4441 1433 4203 
Q 1216 3966 1216 3541 
Q 1216 3113 1433 2875 
Q 1650 2638 2034 2638 
Q 2422 2638 2637 2875 
Q 2853 3113 2853 3541 
z
M 2516 2484 
Q 3047 2413 3344 2092 
Q 3641 1772 3641 1275 
Q 3641 619 3225 264 
Q 2809 -91 2034 -91 
Q 1263 -91 845 264 
Q 428 619 428 1275 
Q 428 1772 725 2092 
Q 1022 2413 1556 2484 
Q 1084 2569 832 2842 
Q 581 3116 581 3541 
Q 581 4103 968 4426 
Q 1356 4750 2034 4750 
Q 2713 4750 3100 4426 
Q 3488 4103 3488 3541 
Q 3488 3116 3236 2842 
Q 2984 2569 2516 2484 
z
" transform="scale(0.015625)"/>
       </defs>
       <use xlink:href="#DejaVuSerif-38"/>
       <use xlink:href="#DejaVuSerif-30" x="63.623047"/>
      </g>
     </g>
    </g>
    <g id="ytick_10">
     <g id="line2d_28">
      <g>
       <use xlink:href="#m957c3bc2e3" x="84.168" y="63.93028" style="stroke: #000000; stroke-width: 0.8"/>
      </g>
     </g>
     <g id="text_29">
      <!-- 90 -->
      <g transform="translate(65.7155 67.349577)scale(0.09 -0.09)">
       <defs>
        <path id="DejaVuSerif-39" d="M 2994 2091 
Q 2784 1856 2512 1740 
Q 2241 1625 1900 1625 
Q 1206 1625 804 2044 
Q 403 2463 403 3188 
Q 403 3897 839 4323 
Q 1275 4750 2003 4750 
Q 2794 4750 3217 4161 
Q 3641 3572 3641 2478 
Q 3641 1253 3137 581 
Q 2634 -91 1722 -91 
Q 1475 -91 1203 -44 
Q 931 3 647 97 
L 647 872 
L 997 872 
Q 1038 556 1241 387 
Q 1444 219 1784 219 
Q 2391 219 2687 676 
Q 2984 1134 2994 2091 
z
M 1978 4441 
Q 1534 4441 1298 4117 
Q 1063 3794 1063 3188 
Q 1063 2581 1298 2256 
Q 1534 1931 1978 1931 
Q 2422 1931 2658 2245 
Q 2894 2559 2894 3150 
Q 2894 3772 2656 4106 
Q 2419 4441 1978 4441 
z
" transform="scale(0.015625)"/>
       </defs>
       <use xlink:href="#DejaVuSerif-39"/>
       <use xlink:href="#DejaVuSerif-30" x="63.623047"/>
      </g>
     </g>
    </g>
    <g id="ytick_11">
     <g id="line2d_29">
      <g>
       <use xlink:href="#m957c3bc2e3" x="84.168" y="41.806093" style="stroke: #000000; stroke-width: 0.8"/>
      </g>
     </g>
     <g id="text_30">
      <!-- 100 -->
      <g transform="translate(59.98925 45.22539)scale(0.09 -0.09)">
       <use xlink:href="#DejaVuSerif-31"/>
       <use xlink:href="#DejaVuSerif-30" x="63.623047"/>
       <use xlink:href="#DejaVuSerif-30" x="127.246094"/>
      </g>
     </g>
    </g>
    <g id="text_31">
     <!-- Intensity -->
     <g transform="translate(52.878625 180.445431)rotate(-90)scale(0.14 -0.14)">
      <defs>
       <path id="DejaVuSerif-49" d="M 1581 331 
L 2175 331 
L 2175 0 
L 353 0 
L 353 331 
L 947 331 
L 947 4331 
L 353 4331 
L 353 4666 
L 2175 4666 
L 2175 4331 
L 1581 4331 
L 1581 331 
z
" transform="scale(0.015625)"/>
       <path id="DejaVuSerif-74" d="M 691 2988 
L 184 2988 
L 184 3322 
L 691 3322 
L 691 4353 
L 1269 4353 
L 1269 3322 
L 2350 3322 
L 2350 2988 
L 1269 2988 
L 1269 878 
Q 1269 456 1350 337 
Q 1431 219 1650 219 
Q 1875 219 1978 351 
Q 2081 484 2088 781 
L 2522 781 
Q 2497 328 2275 118 
Q 2053 -91 1600 -91 
Q 1103 -91 897 129 
Q 691 350 691 878 
L 691 2988 
z
" transform="scale(0.015625)"/>
       <path id="DejaVuSerif-73" d="M 359 184 
L 359 959 
L 691 959 
Q 703 588 923 403 
Q 1144 219 1575 219 
Q 1963 219 2166 364 
Q 2369 509 2369 788 
Q 2369 1006 2220 1140 
Q 2072 1275 1594 1428 
L 1178 1569 
Q 750 1706 558 1912 
Q 366 2119 366 2438 
Q 366 2894 700 3153 
Q 1034 3413 1625 3413 
Q 1888 3413 2178 3344 
Q 2469 3275 2778 3144 
L 2778 2419 
L 2447 2419 
Q 2434 2741 2221 2922 
Q 2009 3103 1644 3103 
Q 1281 3103 1095 2975 
Q 909 2847 909 2591 
Q 909 2381 1050 2254 
Q 1191 2128 1613 1997 
L 2069 1856 
Q 2541 1709 2748 1489 
Q 2956 1269 2956 922 
Q 2956 450 2595 179 
Q 2234 -91 1600 -91 
Q 1278 -91 972 -22 
Q 666 47 359 184 
z
" transform="scale(0.015625)"/>
       <path id="DejaVuSerif-69" d="M 622 4353 
Q 622 4497 726 4603 
Q 831 4709 978 4709 
Q 1122 4709 1226 4603 
Q 1331 4497 1331 4353 
Q 1331 4206 1228 4103 
Q 1125 4000 978 4000 
Q 831 4000 726 4103 
Q 622 4206 622 4353 
z
M 1356 331 
L 1900 331 
L 1900 0 
L 231 0 
L 231 331 
L 781 331 
L 781 2988 
L 231 2988 
L 231 3322 
L 1356 3322 
L 1356 331 
z
" transform="scale(0.015625)"/>
       <path id="DejaVuSerif-79" d="M 1381 -609 
L 1600 -56 
L 359 2988 
L -19 2988 
L -19 3322 
L 1509 3322 
L 1509 2988 
L 978 2988 
L 1913 703 
L 2847 2988 
L 2350 2988 
L 2350 3322 
L 3597 3322 
L 3597 2988 
L 3225 2988 
L 1703 -750 
Q 1547 -1138 1356 -1280 
Q 1166 -1422 819 -1422 
Q 672 -1422 517 -1397 
Q 363 -1372 206 -1325 
L 206 -691 
L 500 -691 
Q 519 -903 608 -995 
Q 697 -1088 884 -1088 
Q 1056 -1088 1161 -992 
Q 1266 -897 1381 -609 
z
" transform="scale(0.015625)"/>
      </defs>
      <use xlink:href="#DejaVuSerif-49"/>
      <use xlink:href="#DejaVuSerif-6e" x="39.501953"/>
      <use xlink:href="#DejaVuSerif-74" x="103.90625"/>
      <use xlink:href="#DejaVuSerif-65" x="144.091797"/>
      <use xlink:href="#DejaVuSerif-6e" x="203.271484"/>
      <use xlink:href="#DejaVuSerif-73" x="267.675781"/>
      <use xlink:href="#DejaVuSerif-69" x="318.994141"/>
      <use xlink:href="#DejaVuSerif-74" x="350.976562"/>
      <use xlink:href="#DejaVuSerif-79" x="391.162109"/>
     </g>
    </g>
   </g>
   <g id="line2d_30">
    <path d="M 84.168 263.047963 
L 125.479246 262.992733 
L 126.204005 262.830519 
L 126.928763 262.465239 
L 127.653522 261.94224 
L 128.378281 261.558882 
L 129.827798 261.36688 
L 130.552557 261.120022 
L 131.277316 261.181321 
L 132.002074 261.401288 
L 133.451592 261.197383 
L 134.17635 261.662736 
L 134.901109 262.41939 
L 135.625868 262.818478 
L 136.350626 262.817525 
L 137.800144 262.496132 
L 139.249661 261.935137 
L 139.97442 262.113308 
L 140.699179 262.448715 
L 141.423937 262.596456 
L 143.598213 262.601472 
L 144.322972 262.283799 
L 145.047731 261.814307 
L 145.77249 261.629257 
L 146.497248 261.936354 
L 147.222007 262.449984 
L 147.946766 262.824904 
L 148.671524 262.955574 
L 150.121042 262.72838 
L 150.8458 262.465491 
L 152.295318 261.47897 
L 153.020077 261.325652 
L 153.744835 261.767876 
L 154.469594 262.367708 
L 155.194353 262.684877 
L 155.919111 262.796107 
L 156.64387 262.770546 
L 158.093387 262.223584 
L 158.818146 262.259618 
L 160.267664 262.86041 
L 161.717181 263.039962 
L 165.340974 262.993031 
L 167.515251 262.550045 
L 168.240009 262.57363 
L 168.964768 262.168543 
L 169.689527 260.965903 
L 170.414285 259.436907 
L 171.139044 258.574623 
L 171.863803 259.188757 
L 172.588561 260.81948 
L 173.31332 261.827281 
L 174.038079 261.494641 
L 174.762838 260.721616 
L 175.487596 260.85886 
L 176.212355 261.761257 
L 176.937114 262.043274 
L 177.661872 261.185571 
L 178.386631 260.130167 
L 179.836148 259.064075 
L 180.560907 258.954306 
L 181.285666 260.285688 
L 182.010425 261.861094 
L 182.735183 262.345717 
L 183.459942 261.948802 
L 184.909459 260.629932 
L 185.634218 258.861479 
L 186.358977 255.658961 
L 187.083735 254.063689 
L 187.808494 256.367059 
L 188.533253 259.676719 
L 189.258012 261.205668 
L 189.98277 261.500438 
L 191.432288 261.738505 
L 192.157046 261.60232 
L 192.881805 261.01887 
L 194.331322 259.322941 
L 195.056081 258.328098 
L 195.78084 257.910135 
L 196.505599 258.618347 
L 197.955116 261.461213 
L 198.679875 261.740572 
L 199.404633 259.87431 
L 200.129392 256.787511 
L 200.854151 256.013104 
L 202.303668 261.023361 
L 203.028427 261.951984 
L 204.477944 262.734681 
L 205.202703 262.968716 
L 206.65222 263.047098 
L 209.551255 262.971676 
L 210.276014 262.276703 
L 211.000773 258.62651 
L 211.725531 248.630462 
L 212.45029 235.417579 
L 213.175049 228.293563 
L 213.899807 227.175933 
L 214.624566 229.038042 
L 215.349325 238.150588 
L 216.074083 250.432781 
L 216.798842 256.709131 
L 218.24836 259.600046 
L 218.973118 261.628501 
L 219.697877 262.721903 
L 220.422636 263.003722 
L 221.147394 262.997357 
L 221.872153 262.59724 
L 222.596912 260.656802 
L 223.32167 255.760717 
L 224.046429 249.688494 
L 224.771188 247.217986 
L 225.495947 250.212119 
L 226.220705 256.028854 
L 226.945464 260.48671 
L 227.670223 261.035909 
L 228.394981 254.853113 
L 229.844499 222.753042 
L 230.569257 222.834244 
L 232.018775 246.200499 
L 232.743534 254.796734 
L 233.468292 260.369408 
L 234.193051 262.38802 
L 234.91781 262.367159 
L 235.642568 261.483017 
L 236.367327 259.778557 
L 237.092086 256.31111 
L 237.816844 251.888582 
L 238.541603 250.330892 
L 239.266362 251.985171 
L 239.991121 250.017684 
L 240.715879 240.98942 
L 241.440638 235.741482 
L 242.890155 249.304582 
L 243.614914 249.439045 
L 244.339673 247.87394 
L 245.064431 245.668287 
L 245.78919 241.853013 
L 246.513949 242.571816 
L 247.238708 247.406051 
L 248.688225 253.51872 
L 249.412984 256.194816 
L 250.137742 254.376191 
L 250.862501 246.559 
L 251.58726 236.923258 
L 252.312018 233.090799 
L 253.036777 239.288756 
L 253.761536 249.955687 
L 254.486295 257.767547 
L 255.211053 260.673531 
L 255.935812 259.295741 
L 256.660571 255.984104 
L 257.385329 254.301676 
L 258.110088 253.015488 
L 258.834847 248.223859 
L 259.559605 244.889106 
L 261.009123 252.082607 
L 261.733882 249.567461 
L 262.45864 248.22441 
L 263.183399 253.35077 
L 263.908158 259.469932 
L 264.632916 261.94892 
L 265.357675 261.108871 
L 266.082434 258.092566 
L 266.807192 255.76062 
L 267.531951 257.115561 
L 268.25671 260.359771 
L 268.981469 262.223953 
L 269.706227 262.20931 
L 270.430986 261.108261 
L 271.155745 260.281039 
L 271.880503 260.82963 
L 272.605262 261.866363 
L 273.330021 261.838075 
L 274.054779 260.129309 
L 275.504297 253.964591 
L 276.229056 254.545628 
L 276.953814 258.103785 
L 277.678573 260.682043 
L 278.403332 260.996841 
L 279.852849 258.909801 
L 280.577608 259.479209 
L 281.302366 261.071033 
L 282.027125 261.305499 
L 283.476643 256.761131 
L 284.201401 257.291001 
L 284.92616 260.12932 
L 285.650919 262.214725 
L 286.375677 262.806887 
L 287.100436 262.572764 
L 287.825195 261.951844 
L 288.549953 261.12605 
L 289.274712 258.795191 
L 290.72423 247.687387 
L 291.448988 249.316664 
L 292.173747 255.605143 
L 292.898506 260.168468 
L 293.623264 262.096185 
L 294.348023 262.79515 
L 295.072782 262.971782 
L 295.79754 262.89933 
L 297.247058 262.523207 
L 297.971817 262.167018 
L 298.696575 261.041293 
L 299.421334 259.617304 
L 300.146093 259.650269 
L 301.59561 262.465866 
L 302.320369 262.831183 
L 303.045127 262.354017 
L 304.494645 259.315823 
L 305.219404 259.464886 
L 305.944162 261.121667 
L 306.668921 262.21091 
L 307.39368 261.269624 
L 308.118438 257.399782 
L 308.843197 252.614481 
L 309.567956 252.268414 
L 310.292714 256.354241 
L 311.017473 259.300402 
L 311.742232 259.892211 
L 312.466991 260.646722 
L 313.191749 261.949227 
L 313.916508 262.767133 
L 314.641267 263.008202 
L 316.090784 263.029395 
L 316.815543 262.822984 
L 317.540301 261.344778 
L 318.26506 254.964993 
L 319.714578 221.553412 
L 320.439336 219.137324 
L 321.164095 229.225967 
L 321.888854 231.739098 
L 322.613612 230.771084 
L 324.06313 250.383888 
L 324.787888 250.402154 
L 325.512647 246.26503 
L 326.237406 248.887997 
L 326.962165 256.362169 
L 327.686923 261.299842 
L 328.411682 262.769855 
L 329.136441 262.653712 
L 329.861199 260.028233 
L 330.585958 249.567393 
L 331.310717 229.647641 
L 332.035475 216.523477 
L 332.760234 224.200783 
L 333.484993 236.960125 
L 334.209752 234.781771 
L 334.93451 216.207309 
L 335.659269 201.874919 
L 336.384028 212.01047 
L 337.108786 227.537677 
L 337.833545 226.378328 
L 338.558304 224.70529 
L 339.283062 237.964317 
L 340.007821 253.368134 
L 340.73258 258.548964 
L 341.457339 252.073546 
L 342.906856 218.668094 
L 343.631615 223.711479 
L 344.356373 242.666245 
L 345.081132 255.477588 
L 345.805891 258.063266 
L 346.530649 251.589998 
L 347.255408 237.049737 
L 347.980167 226.628198 
L 348.704926 230.869638 
L 349.429684 241.632638 
L 350.154443 249.570296 
L 350.879202 254.636926 
L 351.60396 258.418637 
L 352.328719 261.096397 
L 353.053478 261.988518 
L 353.778237 260.034946 
L 355.227754 249.664035 
L 355.952513 251.302315 
L 356.677271 257.347969 
L 357.40203 261.513307 
L 358.126789 262.761669 
L 358.851547 262.65999 
L 359.576306 261.753704 
L 361.750582 257.408876 
L 363.2001 253.148957 
L 363.924858 251.638953 
L 364.649617 253.108825 
L 365.374376 257.226598 
L 366.099134 258.883378 
L 366.823893 252.823443 
L 367.548652 239.050237 
L 368.273411 229.240718 
L 368.998169 234.985428 
L 369.722928 248.532797 
L 370.447687 254.27627 
L 371.172445 247.54969 
L 371.897204 237.936415 
L 372.621963 239.376288 
L 373.346721 249.106069 
L 374.07148 251.719694 
L 374.796239 237.868001 
L 375.520998 213.861113 
L 376.245756 206.281189 
L 377.695274 247.481001 
L 378.420032 252.965863 
L 379.144791 250.004207 
L 379.86955 250.988851 
L 380.594308 256.762604 
L 381.319067 261.234252 
L 382.043826 262.758549 
L 382.768585 263.022322 
L 383.493343 263.042184 
L 384.218102 262.939883 
L 384.942861 261.623275 
L 385.667619 252.645471 
L 386.392378 220.850068 
L 387.117137 166.94662 
L 387.841895 136.22567 
L 388.566654 157.859374 
L 389.291413 200.272111 
L 390.016172 234.206672 
L 390.74093 253.789757 
L 391.465689 261.205854 
L 392.190448 262.693706 
L 392.915206 262.300951 
L 393.639965 260.894813 
L 394.364724 259.126141 
L 395.089482 258.07995 
L 395.814241 257.477557 
L 396.539 256.648637 
L 397.263759 257.032929 
L 397.988517 258.846368 
L 398.713276 258.886971 
L 399.438035 252.094694 
L 400.162793 226.485841 
L 400.887552 175.3024 
L 401.612311 137.29032 
L 402.337069 157.435352 
L 403.061828 205.170127 
L 403.786587 235.8719 
L 404.511346 250.780103 
L 405.236104 258.948557 
L 405.960863 262.222308 
L 406.685622 262.954041 
L 408.135139 263.047746 
L 409.584656 263.035576 
L 410.309415 262.855574 
L 411.034174 261.362569 
L 411.758933 254.405602 
L 412.483691 234.629059 
L 413.20845 193.288708 
L 414.657967 48.892716 
L 415.382726 41.806093 
L 416.832243 207.894887 
L 417.557002 250.270026 
L 418.281761 258.085785 
L 419.00652 249.713903 
L 419.731278 234.664243 
L 420.456037 229.371508 
L 421.180796 240.951502 
L 421.905554 255.031269 
L 422.630313 261.439752 
L 423.355072 262.869574 
L 424.07983 263.037011 
L 425.529348 263.031987 
L 426.254107 262.780656 
L 426.978865 260.513861 
L 427.703624 249.280667 
L 428.428383 219.580765 
L 429.153141 182.253076 
L 429.8779 173.995407 
L 431.327417 240.390918 
L 432.052176 254.730723 
L 432.776935 248.078882 
L 433.501694 229.613602 
L 434.226452 220.087619 
L 434.951211 232.464105 
L 435.67597 250.697099 
L 436.400728 258.031741 
L 437.125487 252.982997 
L 437.850246 240.444321 
L 438.575004 231.762372 
L 439.299763 234.773752 
L 440.024522 244.730955 
L 440.749281 252.824937 
L 441.474039 249.090618 
L 442.923557 201.02239 
L 443.648315 204.059381 
L 444.373074 231.141049 
L 445.097833 247.004973 
L 445.822591 232.454759 
L 446.54735 196.231491 
L 447.272109 178.674358 
L 447.996868 204.030982 
L 448.721626 240.220357 
L 449.446385 258.151225 
L 450.171144 262.188098 
L 450.895902 260.001043 
L 451.620661 245.324715 
L 452.34542 205.338299 
L 453.070178 159.136872 
L 453.794937 159.593191 
L 455.244455 245.7118 
L 455.969213 260.130087 
L 456.693972 262.776409 
L 457.418731 263.033989 
L 463.941559 263.047963 
L 658.176891 263.020133 
L 658.901649 262.773735 
L 659.626408 261.55381 
L 661.075925 255.547193 
L 661.800684 256.106007 
L 662.525443 259.18932 
L 663.250202 260.15792 
L 663.97496 256.883479 
L 664.699719 252.283576 
L 665.424478 252.223161 
L 666.873995 261.12167 
L 667.598754 262.709543 
L 668.323512 263.014903 
L 670.497789 263.008848 
L 671.222547 262.754105 
L 671.947306 261.827218 
L 672.672065 260.243776 
L 673.396823 259.48399 
L 674.121582 260.520352 
L 674.846341 261.91083 
L 675.571099 262.152312 
L 676.295858 261.005752 
L 677.020617 258.920665 
L 677.745376 257.375664 
L 678.470134 256.997069 
L 679.194893 255.979535 
L 679.919652 254.404159 
L 680.64441 254.856995 
L 682.093928 260.806067 
L 682.818686 261.976082 
L 683.543445 261.247912 
L 684.268204 260.039959 
L 684.992963 260.154664 
L 685.717721 261.459914 
L 686.44248 262.393617 
L 687.167239 262.548406 
L 688.616756 262.430739 
L 689.341515 262.242392 
L 690.066273 262.181975 
L 692.24055 263.005937 
L 695.139584 263.047962 
L 711.809034 263.010139 
L 712.533793 262.709772 
L 713.258552 261.375955 
L 713.983311 258.477187 
L 714.708069 256.138941 
L 715.432828 257.273411 
L 716.157587 260.379292 
L 716.882345 262.366022 
L 717.607104 262.951608 
L 719.056621 263.047637 
L 763.991661 263.042066 
L 764.71642 262.948754 
L 765.441178 262.100442 
L 766.165937 257.830572 
L 766.890696 246.164606 
L 767.615454 230.364509 
L 768.340213 224.871713 
L 769.064972 236.260866 
L 769.78973 251.623003 
L 770.514489 258.045178 
L 771.239248 254.015012 
L 771.964007 245.327042 
L 772.688765 243.084086 
L 774.138283 258.751872 
L 774.863041 262.22853 
L 775.5878 262.96154 
L 777.037317 263.0478 
L 787.908698 263.033373 
L 788.633457 262.815478 
L 789.358215 260.990018 
L 790.082974 252.867246 
L 791.532491 216.523123 
L 792.25725 216.772698 
L 793.706768 250.484819 
L 794.431526 259.629263 
L 795.156285 262.482556 
L 795.881044 262.993655 
L 798.05532 263.047961 
L 808.201942 263.047963 
L 808.201942 263.047963 
" clip-path="url(#p9d233ae1e7)" style="fill: none; stroke: #a40000; stroke-width: 1.8; stroke-linecap: square"/>
   </g>
   <g id="patch_3">
    <path d="M 84.168 267.4728 
L 84.168 30.744 
" style="fill: none; stroke: #000000; stroke-width: 0.8; stroke-linejoin: miter; stroke-linecap: square"/>
   </g>
   <g id="patch_4">
    <path d="M 84.168 267.4728 
L 824.8464 267.4728 
" style="fill: none; stroke: #000000; stroke-width: 0.8; stroke-linejoin: miter; stroke-linecap: square"/>
   </g>
   <g id="text_32">
    <!-- Spectrum of # -->
    <g transform="translate(395.3472 24.744)scale(0.16 -0.16)">
     <defs>
      <path id="DejaVuSerif-53" d="M 594 225 
L 594 1288 
L 953 1284 
Q 969 753 1261 498 
Q 1553 244 2150 244 
Q 2706 244 2998 464 
Q 3291 684 3291 1106 
Q 3291 1444 3114 1625 
Q 2938 1806 2369 1978 
L 1753 2163 
Q 1084 2366 811 2669 
Q 538 2972 538 3500 
Q 538 4094 959 4422 
Q 1381 4750 2144 4750 
Q 2469 4750 2856 4679 
Q 3244 4609 3681 4475 
L 3681 3481 
L 3328 3481 
Q 3275 3975 2998 4195 
Q 2722 4416 2156 4416 
Q 1663 4416 1405 4214 
Q 1147 4013 1147 3628 
Q 1147 3294 1340 3103 
Q 1534 2913 2163 2725 
L 2741 2553 
Q 3375 2363 3645 2067 
Q 3916 1772 3916 1275 
Q 3916 597 3481 253 
Q 3047 -91 2188 -91 
Q 1803 -91 1404 -12 
Q 1006 66 594 225 
z
" transform="scale(0.015625)"/>
      <path id="DejaVuSerif-70" d="M 1313 1825 
L 1313 1497 
Q 1313 897 1542 583 
Q 1772 269 2209 269 
Q 2650 269 2876 622 
Q 3103 975 3103 1663 
Q 3103 2353 2876 2703 
Q 2650 3053 2209 3053 
Q 1772 3053 1542 2737 
Q 1313 2422 1313 1825 
z
M 738 2988 
L 184 2988 
L 184 3322 
L 1313 3322 
L 1313 2803 
Q 1481 3116 1742 3264 
Q 2003 3413 2388 3413 
Q 3000 3413 3387 2928 
Q 3775 2444 3775 1663 
Q 3775 881 3387 395 
Q 3000 -91 2388 -91 
Q 2003 -91 1742 57 
Q 1481 206 1313 519 
L 1313 -997 
L 1856 -997 
L 1856 -1331 
L 184 -1331 
L 184 -997 
L 738 -997 
L 738 2988 
z
" transform="scale(0.015625)"/>
      <path id="DejaVuSerif-63" d="M 3291 997 
Q 3169 466 2822 187 
Q 2475 -91 1925 -91 
Q 1200 -91 759 389 
Q 319 869 319 1663 
Q 319 2459 759 2936 
Q 1200 3413 1925 3413 
Q 2241 3413 2553 3339 
Q 2866 3266 3181 3116 
L 3181 2266 
L 2847 2266 
Q 2781 2703 2561 2903 
Q 2341 3103 1931 3103 
Q 1466 3103 1228 2742 
Q 991 2381 991 1663 
Q 991 944 1227 581 
Q 1463 219 1931 219 
Q 2303 219 2525 412 
Q 2747 606 2828 997 
L 3291 997 
z
" transform="scale(0.015625)"/>
      <path id="DejaVuSerif-20" transform="scale(0.015625)"/>
      <path id="DejaVuSerif-6f" d="M 1925 219 
Q 2388 219 2623 584 
Q 2859 950 2859 1663 
Q 2859 2375 2623 2739 
Q 2388 3103 1925 3103 
Q 1463 3103 1227 2739 
Q 991 2375 991 1663 
Q 991 950 1228 584 
Q 1466 219 1925 219 
z
M 1925 -91 
Q 1200 -91 759 389 
Q 319 869 319 1663 
Q 319 2456 758 2934 
Q 1197 3413 1925 3413 
Q 2653 3413 3092 2934 
Q 3531 2456 3531 1663 
Q 3531 869 3092 389 
Q 2653 -91 1925 -91 
z
" transform="scale(0.015625)"/>
      <path id="DejaVuSerif-66" d="M 2753 4078 
L 2450 4078 
Q 2447 4313 2317 4434 
Q 2188 4556 1941 4556 
Q 1619 4556 1487 4379 
Q 1356 4203 1356 3750 
L 1356 3322 
L 2284 3322 
L 2284 2988 
L 1356 2988 
L 1356 331 
L 2094 331 
L 2094 0 
L 231 0 
L 231 331 
L 781 331 
L 781 2988 
L 231 2988 
L 231 3322 
L 781 3322 
L 781 3738 
Q 781 4294 1070 4578 
Q 1359 4863 1919 4863 
Q 2128 4863 2337 4825 
Q 2547 4788 2753 4709 
L 2753 4078 
z
" transform="scale(0.015625)"/>
      <path id="DejaVuSerif-23" d="M 3256 2816 
L 2375 2816 
L 2113 1772 
L 3003 1772 
L 3256 2816 
z
M 2816 4594 
L 2497 3297 
L 3378 3297 
L 3700 4594 
L 4238 4594 
L 3909 3297 
L 4872 3297 
L 4872 2816 
L 3788 2816 
L 3531 1772 
L 4513 1772 
L 4513 1294 
L 3413 1294 
L 3091 0 
L 2553 0 
L 2881 1294 
L 1997 1294 
L 1672 0 
L 1141 0 
L 1459 1294 
L 494 1294 
L 494 1772 
L 1581 1772 
L 1838 2816 
L 850 2816 
L 850 3297 
L 1959 3297 
L 2284 4594 
L 2816 4594 
z
" transform="scale(0.015625)"/>
     </defs>
     <use xlink:href="#DejaVuSerif-53"/>
     <use xlink:href="#DejaVuSerif-70" x="68.505859"/>
     <use xlink:href="#DejaVuSerif-65" x="132.519531"/>
     <use xlink:href="#DejaVuSerif-63" x="191.699219"/>
     <use xlink:href="#DejaVuSerif-74" x="247.705078"/>
     <use xlink:href="#DejaVuSerif-72" x="287.890625"/>
     <use xlink:href="#DejaVuSerif-75" x="335.693359"/>
     <use xlink:href="#DejaVuSerif-6d" x="400.097656"/>
     <use xlink:href="#DejaVuSerif-20" x="494.921875"/>
     <use xlink:href="#DejaVuSerif-6f" x="526.708984"/>
     <use xlink:href="#DejaVuSerif-66" x="586.914062"/>
     <use xlink:href="#DejaVuSerif-20" x="623.925781"/>
     <use xlink:href="#DejaVuSerif-23" x="655.712891"/>
    </g>
   </g>
   <g id="legend_1">
    <g id="line2d_31">
     <path d="M 643.81765 49.081812 
L 657.81765 49.081812 
L 671.81765 49.081812 
" style="fill: none; stroke: #a40000; stroke-width: 1.8; stroke-linecap: square"/>
    </g>
    <g id="text_33">
     <!-- Gaussian Broaden -->
     <g transform="translate(683.01765 53.981812)scale(0.14 -0.14)">
      <defs>
       <path id="DejaVuSerif-47" d="M 4097 3272 
Q 3988 3856 3641 4136 
Q 3294 4416 2675 4416 
Q 1869 4416 1472 3897 
Q 1075 3378 1075 2328 
Q 1075 1300 1484 772 
Q 1894 244 2688 244 
Q 3041 244 3362 331 
Q 3684 419 3975 594 
L 3975 1797 
L 3097 1797 
L 3097 2131 
L 4609 2131 
L 4609 391 
Q 4194 150 3714 29 
Q 3234 -91 2688 -91 
Q 1631 -91 995 570 
Q 359 1231 359 2328 
Q 359 3434 996 4092 
Q 1634 4750 2713 4750 
Q 3113 4750 3539 4658 
Q 3966 4566 4447 4378 
L 4447 3272 
L 4097 3272 
z
" transform="scale(0.015625)"/>
       <path id="DejaVuSerif-42" d="M 1581 331 
L 2516 331 
Q 3078 331 3337 575 
Q 3597 819 3597 1350 
Q 3597 1878 3339 2120 
Q 3081 2363 2516 2363 
L 1581 2363 
L 1581 331 
z
M 1581 2694 
L 2375 2694 
Q 2888 2694 3123 2891 
Q 3359 3088 3359 3513 
Q 3359 3941 3123 4136 
Q 2888 4331 2375 4331 
L 1581 4331 
L 1581 2694 
z
M 353 0 
L 353 331 
L 947 331 
L 947 4331 
L 353 4331 
L 353 4666 
L 2656 4666 
Q 3363 4666 3720 4377 
Q 4078 4088 4078 3513 
Q 4078 3097 3829 2850 
Q 3581 2603 3103 2547 
Q 3697 2472 4005 2167 
Q 4313 1863 4313 1350 
Q 4313 656 3875 328 
Q 3438 0 2509 0 
L 353 0 
z
" transform="scale(0.015625)"/>
       <path id="DejaVuSerif-64" d="M 3359 331 
L 3909 331 
L 3909 0 
L 2784 0 
L 2784 519 
Q 2616 206 2355 57 
Q 2094 -91 1709 -91 
Q 1097 -91 708 395 
Q 319 881 319 1663 
Q 319 2444 706 2928 
Q 1094 3413 1709 3413 
Q 2094 3413 2355 3264 
Q 2616 3116 2784 2803 
L 2784 4531 
L 2241 4531 
L 2241 4863 
L 3359 4863 
L 3359 331 
z
M 2784 1497 
L 2784 1825 
Q 2784 2422 2554 2737 
Q 2325 3053 1888 3053 
Q 1444 3053 1217 2703 
Q 991 2353 991 1663 
Q 991 975 1217 622 
Q 1444 269 1888 269 
Q 2325 269 2554 583 
Q 2784 897 2784 1497 
z
" transform="scale(0.015625)"/>
      </defs>
      <use xlink:href="#DejaVuSerif-47"/>
      <use xlink:href="#DejaVuSerif-61" x="79.882812"/>
      <use xlink:href="#DejaVuSerif-75" x="139.501953"/>
      <use xlink:href="#DejaVuSerif-73" x="203.90625"/>
      <use xlink:href="#DejaVuSerif-73" x="255.224609"/>
      <use xlink:href="#DejaVuSerif-69" x="306.542969"/>
      <use xlink:href="#DejaVuSerif-61" x="338.525391"/>
      <use xlink:href="#DejaVuSerif-6e" x="398.144531"/>
      <use xlink:href="#DejaVuSerif-20" x="462.548828"/>
      <use xlink:href="#DejaVuSerif-42" x="494.335938"/>
      <use xlink:href="#DejaVuSerif-72" x="567.822266"/>
      <use xlink:href="#DejaVuSerif-6f" x="615.625"/>
      <use xlink:href="#DejaVuSerif-61" x="675.830078"/>
      <use xlink:href="#DejaVuSerif-64" x="735.449219"/>
      <use xlink:href="#DejaVuSerif-65" x="799.462891"/>
      <use xlink:href="#DejaVuSerif-6e" x="858.642578"/>
     </g>
    </g>
   </g>
  </g>
 </g>
 <defs>
  <clipPath id="p9d233ae1e7">
   <rect x="84.168" y="30.744" width="740.6784" height="236.7288"/>
  </clipPath>
 </defs>
</svg>
